PathFileType	4	(X/Y/Z)	/Users/itak/Documents/Research/Walk-IL/dataset/trc/00117_00007.trc
DataRate	CameraRate	NumFrames	NumMarkers	Units	OrigDataRate	OrigDataStartFrame	OrigNumFrames
100.000000	100.000000	4	53	mm	100.000000	197	526
Frame#	Time	RPSI			LPSI			L3			STRN			T10			C7			CLAV			RBAK			LBAK			LSHO			LUPA			LAEL			LAOL			LWTS			LWPS			LFRA			LIFD			LHPS			LHTS			RSHO			RUPA			RAEL			RAOL			RWTS			RWPS			RFRA			RIFD			RHTS			RHPS			RBHD			LFHD			RFHD			LBHD			LHIP			RHIP			RASI			LASI			LKNE			LTHI			LANK			LTIP			LTOE			LMT1			LMT5			LHEE			RKNE			RTHI			RANK			RTIP			RTOE			RMT1			RMT5			RHEE			
		X1	Y1	Z1	X2	Y2	Z2	X3	Y3	Z3	X4	Y4	Z4	X5	Y5	Z5	X6	Y6	Z6	X7	Y7	Z7	X8	Y8	Z8	X9	Y9	Z9	X10	Y10	Z10	X11	Y11	Z11	X12	Y12	Z12	X13	Y13	Z13	X14	Y14	Z14	X15	Y15	Z15	X16	Y16	Z16	X17	Y17	Z17	X18	Y18	Z18	X19	Y19	Z19	X20	Y20	Z20	X21	Y21	Z21	X22	Y22	Z22	X23	Y23	Z23	X24	Y24	Z24	X25	Y25	Z25	X26	Y26	Z26	X27	Y27	Z27	X28	Y28	Z28	X29	Y29	Z29	X30	Y30	Z30	X31	Y31	Z31	X32	Y32	Z32	X33	Y33	Z33	X34	Y34	Z34	X35	Y35	Z35	X36	Y36	Z36	X37	Y37	Z37	X38	Y38	Z38	X39	Y39	Z39	X40	Y40	Z40	X41	Y41	Z41	X42	Y42	Z42	X43	Y43	Z43	X44	Y44	Z44	X45	Y45	Z45	X46	Y46	Z46	X47	Y47	Z47	X48	Y48	Z48	X49	Y49	Z49	X50	Y50	Z50	X51	Y51	Z51	X52	Y52	Z52	X53	Y53	Z53	

198	1.97	89.25752258300781	1095.961303710938	-275.4583129882812	97.73215484619141	1102.126586914062	-411.056640625	86.05958557128906	1142.437133789062	-348.7630004882812	331.1342468261719	1332.475463867188	-337.8868713378906	71.77156066894531	1300.293579101562	-357.1515197753906	139.0803680419922	1587.84033203125	-378.5387268066406	310.2628784179688	1471.08154296875	-347.2099609375	64.30718994140625	1411.932861328125	-289.8328247070312	141.3926086425781	1565.377807617188	-480.2604064941406	235.8387298583984	1543.731323242188	-536.3749389648438	223.2713775634766	1410.585083007812	-604.3458862304688	250.5878143310547	1191.174438476562	-617.6110229492188	176.0320739746094	1175.348876953125	-572.9534301757812	373.3886413574219	953.2211303710938	-545.4292602539062	300.676025390625	913.1082763671875	-581.5614624023438	279.0725402832031	1077.371826171875	-612.9791259765625	406.8162841796875	764.0587158203125	-506.1328125	339.5462646484375	842.953857421875	-572.4509887695312	403.0086059570312	867.0823974609375	-548.787109375	175.5981292724609	1572.08203125	-190.1200714111328	149.5608367919922	1502.053344726562	-125.7627716064453	120.7790451049805	1208.371459960938	-100.1165084838867	126.6098785400391	1204.942504882812	-196.7557678222656	260.3913269042969	964.5070190429688	-87.39373016357422	183.0948638916016	948.595458984375	-66.56101989746094	140.3803253173828	1134.990356445312	-80.17839813232422	287.0676879882812	769.8554077148438	-95.48667144775391	288.2952270507812	856.4909057617188	-74.37722015380859	218.8135681152344	849.3175659179688	-54.32899856567383	177.7564544677734	1753.45947265625	-293.71923828125	341.9173583984375	1816.90771484375	-426.5466003417969	338.4963989257812	1828.132202148438	-297.4910888671875	172.1943664550781	1745.562255859375	-429.6182250976562	197.0215148925781	1013.957275390625	-515.8763427734375	217.7780303955078	1005.866760253906	-151.4737548828125	295.3645629882812	1080.551025390625	-203.8088989257812	303.2824401855469	1077.007446289062	-469.0001831054688	241.30908203125	507.359619140625	-467.3480224609375	217.1426239013672	655.3545532226562	-499.0709838867188	-14.95106601715088	50.63580322265625	-442.4219970703125	74.86241912841797	284.945556640625	-481.8575439453125	218.2634582519531	35.25658798217773	-389.3695678710938	135.7389678955078	43.28898620605469	-357.0368347167969	107.7441711425781	37.81039047241211	-470.2193298339844	-83.4478759765625	66.6710205078125	-379.7495422363281	380.4438171386719	547.1671752929688	-175.9369049072266	292.6794738769531	808.3365478515625	-147.9536590576172	460.8115844726562	34.61684799194336	-192.7404937744141	403.353759765625	416.3952331542969	-162.1749877929688	689.2176513671875	50.33049392700195	-250.5192413330078	627.2440795898438	46.98339080810547	-290.5367126464844	596.3037109375	40.61575317382812	-175.3514404296875	402.086669921875	40.61387634277344	-240.7544250488281	
199	1.98	79.35691833496094	1095.705444335938	-277.3453063964844	88.43112182617188	1102.187866210938	-412.8562927246094	76.48880004882812	1142.501342773438	-350.5941162109375	322.5845642089844	1332.1875	-338.922607421875	63.12720489501953	1300.63232421875	-358.8611755371094	131.4629821777344	1588.046020507812	-380.0928039550781	302.0300598144531	1470.677612304688	-348.1734619140625	55.95810317993164	1412.38427734375	-291.4812927246094	133.9741516113281	1565.532348632812	-481.757080078125	228.4483032226562	1543.605590820312	-537.693603515625	215.6970825195312	1410.525634765625	-605.7347412109375	242.5780181884766	1191.113037109375	-619.21337890625	167.8167114257812	1175.378295898438	-574.79296875	364.7456970214844	952.9453735351562	-546.760009765625	292.1017150878906	912.8801879882812	-583.1588745117188	270.8656616210938	1077.234741210938	-614.5701293945312	397.8301696777344	763.733154296875	-507.4087219238281	330.8676452636719	842.6942749023438	-573.9523315429688	394.29150390625	866.7660522460938	-550.008056640625	167.6401214599609	1572.213745117188	-191.5524749755859	141.2954559326172	1502.238525390625	-127.2540740966797	111.4194641113281	1208.603515625	-101.9477996826172	117.5676345825195	1205.230590820312	-198.5846405029297	250.0374755859375	964.1719970703125	-88.93795776367188	172.5764312744141	948.564453125	-68.42443084716797	130.6465759277344	1135.137084960938	-82.0103759765625	275.7246704101562	769.3668823242188	-97.32117462158203	277.3905639648438	855.9618530273438	-76.04154205322266	207.82763671875	849.12451171875	-56.19067001342773	170.5675354003906	1753.88134765625	-295.3590698242188	334.9110107421875	1816.394409179688	-428.4178161621094	331.5934143066406	1827.947143554688	-299.4113464355469	165.0097808837891	1745.645263671875	-431.3351440429688	188.1774444580078	1014.202209472656	-517.4168701171875	207.6582794189453	1005.557373046875	-152.9167633056641	285.1514587402344	1080.374755859375	-205.0352172851562	294.264404296875	1077.074584960938	-470.0580444335938	232.1166229248047	508.0650939941406	-467.7793884277344	208.0471038818359	655.6976928710938	-499.6634826660156	-15.85072135925293	47.721923828125	-441.72900390625	69.97366333007812	282.776123046875	-481.8283081054688	218.1201629638672	35.28112030029297	-389.5422973632812	135.4569244384766	42.57314682006836	-356.8008728027344	107.350700378418	37.73863220214844	-470.0848999023438	-84.52164459228516	61.73498153686523	-378.861083984375	375.7335510253906	549.0263671875	-176.1748352050781	284.1423950195312	808.992431640625	-148.5729064941406	455.438720703125	34.95812225341797	-191.4183959960938	398.5693664550781	417.9082336425781	-162.1180114746094	683.5068969726562	54.3630256652832	-248.5130310058594	621.7862548828125	50.62625122070312	-288.9674377441406	590.829833984375	41.45489120483398	-174.0049896240234	396.6445617675781	40.61527633666992	-239.4280242919922	
200	1.99	69.55845642089844	1095.601440429688	-279.0749206542969	79.20082855224609	1102.394165039062	-414.5160522460938	66.97917938232422	1142.708984375	-352.2793273925781	314.0892333984375	1332.07763671875	-339.8850708007812	54.48948287963867	1301.115600585938	-360.4183654785156	123.8401870727539	1588.397094726562	-381.5074462890625	293.8360290527344	1470.467407226562	-349.0889282226562	47.6129264831543	1412.9814453125	-292.9813232421875	126.5194320678711	1565.834716796875	-483.1199645996094	221.0207366943359	1543.617431640625	-538.9066772460938	208.0494384765625	1410.599487304688	-607.0093994140625	234.4359436035156	1191.18212890625	-620.7456665039062	159.4940643310547	1175.55712890625	-576.5140991210938	355.8965759277344	952.7218017578125	-548.1749267578125	283.2831726074219	912.7540893554688	-584.8157958984375	262.4815673828125	1077.215576171875	-616.1361694335938	388.551513671875	763.4203491210938	-508.8858642578125	321.9015197753906	842.5064697265625	-575.5676879882812	385.3306274414062	866.49609375	-551.403076171875	159.7308044433594	1572.482543945312	-192.8526458740234	133.1195678710938	1502.549926757812	-128.6102752685547	102.2179718017578	1208.965454101562	-103.5870895385742	108.5676574707031	1205.64111328125	-200.2216491699219	239.7588348388672	963.9259033203125	-90.47286224365234	162.1577758789062	948.6536254882812	-70.17730712890625	121.0858993530273	1135.417236328125	-83.67018890380859	264.3382263183594	768.9630126953125	-99.18205261230469	266.5414428710938	855.519287109375	-77.73103332519531	196.9174499511719	849.0487060546875	-57.98360824584961	163.4132537841797	1754.423706054688	-296.8933715820312	327.8582763671875	1816.048583984375	-430.2285766601562	324.6796875	1827.935302734375	-301.2691040039062	157.796142578125	1745.877807617188	-432.9482727050781	179.4058837890625	1014.623168945312	-518.851806640625	197.7285919189453	1005.444763183594	-154.2591552734375	275.1040649414062	1080.384765625	-206.1822052001953	285.3286743164062	1077.327880859375	-471.0666809082031	223.4033050537109	508.9208984375	-468.3356628417969	199.3268737792969	656.2069091796875	-500.31689453125	-16.58720397949219	45.19541931152344	-441.3618774414062	65.5093994140625	280.9456176757812	-481.9989624023438	217.9141387939453	35.33732223510742	-389.7480163574219	135.1730041503906	41.9818000793457	-356.6254272460938	107.0815887451172	37.67150497436523	-470.0366821289062	-85.36310577392578	57.41516494750977	-378.3739318847656	371.2924194335938	551.0894775390625	-176.5132904052734	276.1005859375	809.9721069335938	-149.1931304931641	448.3621826171875	35.22318267822266	-189.9599151611328	393.5176696777344	419.4511413574219	-162.1968231201172	676.1451416015625	58.72396850585938	-246.2422027587891	614.7218017578125	54.33900833129883	-287.1383056640625	583.505126953125	42.55583190917969	-172.3226776123047	389.5938110351562	40.2425651550293	-238.0114440917969	
201	2	59.89894104003906	1095.675170898438	-280.6311645507812	70.05467224121094	1102.771362304688	-416.024169921875	57.54777526855469	1143.0810546875	-353.8029174804688	305.6325378417969	1332.163208007812	-340.7698059082031	45.85642242431641	1301.756469726562	-361.8147277832031	116.2054672241211	1588.907958984375	-382.7814025878906	285.6872863769531	1470.485595703125	-349.9671020507812	39.27735137939453	1413.735229492188	-294.3280029296875	119.0159149169922	1566.299682617188	-484.3529052734375	213.5413208007812	1543.784790039062	-540.0142822265625	200.3242492675781	1410.824584960938	-608.1710205078125	226.163330078125	1191.396484375	-622.1947021484375	151.0720062255859	1175.898559570312	-578.0989990234375	346.83984375	952.5568237304688	-549.6764526367188	274.2134094238281	912.7529296875	-586.5279541015625	253.9190521240234	1077.333129882812	-617.6689453125	378.9748840332031	763.125	-510.5768127441406	312.64013671875	842.40673828125	-577.2980346679688	376.1245727539062	866.2843017578125	-552.9821166992188	151.8561706542969	1572.909545898438	-194.0220184326172	125.0228729248047	1503.009887695312	-129.8317718505859	93.184326171875	1209.477783203125	-105.0399856567383	99.62522888183594	1206.19384765625	-201.6731567382812	229.56787109375	963.7884521484375	-92.0018310546875	151.8548889160156	948.885986328125	-71.81322479248047	111.7158966064453	1135.852416992188	-85.16041564941406	252.9306945800781	768.669921875	-101.0521087646484	255.7581024169922	855.1885986328125	-79.43977355957031	186.0959320068359	849.113037109375	-59.70005035400391	156.2875823974609	1755.105712890625	-298.3159790039062	320.7659912109375	1815.889282226562	-431.9732360839844	317.75634765625	1828.109130859375	-303.0544738769531	150.5551452636719	1746.267333984375	-434.4467163085938	170.6865386962891	1015.233581542969	-520.174072265625	188.0188446044922	1005.546813964844	-155.5067291259766	265.260498046875	1080.5986328125	-207.2530059814453	276.4801940917969	1077.78515625	-472.0306091308594	215.1407318115234	509.9298400878906	-469.0007934570312	190.9449768066406	656.8877563476562	-501.033935546875	-17.20076370239258	43.06850814819336	-441.2393798828125	61.34534454345703	279.484619140625	-482.30126953125	217.6702880859375	35.41870498657227	-389.9933776855469	134.8954772949219	41.51073837280273	-356.4927368164062	106.9056015014648	37.61264801025391	-470.046875	-86.01218414306641	53.71229553222656	-378.160400390625	366.9802856445312	553.309814453125	-176.9585113525391	268.5386047363281	811.2638549804688	-149.8423614501953	439.4907836914062	35.45674514770508	-188.3938293457031	388.0207824707031	420.9956970214844	-162.4050140380859	667.03564453125	63.22830200195312	-243.7229919433594	605.9545288085938	57.93174362182617	-285.05078125	574.2744750976562	43.97777557373047	-170.3187255859375	380.8569946289062	39.58416748046875	-236.5396728515625	
